<?xml version="1.0" encoding="UTF-8" standalone="no"?>
<svg width="256px" height="256px" viewBox="0 0 256 256" version="1.1" xmlns="http://www.w3.org/2000/svg" xmlns:xlink="http://www.w3.org/1999/xlink" xmlns:sketch="http://www.bohemiancoding.com/sketch/ns">
    <!-- Generator: Sketch 3.5.2 (25235) - http://www.bohemiancoding.com/sketch -->
    <title>lgo-ionicss</title>
    <desc>Created with Sketch.</desc>
    <defs>
        <linearGradient x1="39.154508%" y1="0%" x2="50%" y2="100%" id="linearGradient-1">
            <stop stop-color="#F67FF5" offset="0%"></stop>
            <stop stop-color="#5F81E4" offset="100%"></stop>
        </linearGradient>
    </defs>
    <g id="Page-1" stroke="none" stroke-width="1" fill="none" fill-rule="evenodd" sketch:type="MSPage">
        <g id="lgo-ionicss" sketch:type="MSArtboardGroup" fill="url(#linearGradient-1)">
            <path d="M128,244 C192.065031,244 244,192.065031 244,128 C244,63.934969 192.065031,12 128,12 C63.934969,12 12,63.934969 12,128 C12,192.065031 63.934969,244 128,244 L128,244 Z M128,232 C70.562386,232 24,185.437614 24,128 C24,70.562386 70.562386,24 128,24 C185.437614,24 232,70.562386 232,128 C232,185.437614 185.437614,232 128,232 L128,232 Z" id="Shape" sketch:type="MSShapeGroup"></path>
            <path d="M209.680912,163.446467 C213.923951,153.004369 216.133333,141.794349 216.133333,130.287175 C216.133333,81.6124794 176.674696,42.153842 128,42.153842 C79.3253041,42.153842 39.8666667,81.6124794 39.8666667,130.287175 C39.8666667,141.175941 41.8448103,151.801102 45.6562679,161.765776 C46.8401062,164.860802 50.3088118,166.410127 53.4038385,165.226288 C56.4988653,164.04245 58.0481897,160.573744 56.8643513,157.478718 C53.5743846,148.877429 51.8666667,139.704801 51.8666667,130.287175 C51.8666667,88.2398964 85.952721,54.153842 128,54.153842 C170.047279,54.153842 204.133333,88.2398964 204.133333,130.287175 C204.133333,140.239062 202.226173,149.915664 198.563661,158.929087 C197.31622,161.999031 198.793652,165.498962 201.863596,166.746402 C204.93354,167.993843 208.433471,166.516412 209.680912,163.446467 L209.680912,163.446467 Z" id="Shape" sketch:type="MSShapeGroup"></path>
            <path d="M209.501182,200.913817 L142.355088,102.401491 C134.42228,90.7629986 120.046095,90.7600161 112.111114,102.401428 L44.9634661,200.913755 C42.7860491,204.108244 43.6105488,208.463034 46.8050377,210.640451 C49.9995265,212.817868 54.3543166,211.993368 56.5317336,208.79888 L123.679382,110.286553 C126.056163,106.799576 128.410384,106.800064 130.786735,110.286491 L197.93283,208.798817 C200.110212,211.99333 204.464993,212.817876 207.659506,210.640494 C210.854018,208.463111 211.678565,204.10833 209.501182,200.913817 L209.501182,200.913817 Z" id="Shape" sketch:type="MSShapeGroup"></path>
        </g>
    </g>
</svg>